<svg width="60" height="60" viewBox="0 0 60 60" fill="none" xmlns="http://www.w3.org/2000/svg">
<rect width="60" height="60" rx="30" fill="#0A0723"/>
<path d="M38.7149 20.235V21.345L33.4049 18.27C31.3949 17.115 28.5899 17.115 26.5949 18.27L21.2849 21.36V20.235C21.2849 16.86 23.1299 15 26.5049 15H33.4949C36.8699 15 38.7149 16.86 38.7149 20.235Z" fill="white"/>
<path d="M38.76 23.955L38.55 23.85L36.51 22.68L32.28 20.235C30.99 19.485 29.01 19.485 27.72 20.235L23.49 22.665L21.45 23.865L21.18 24C18.555 25.77 18.375 26.1 18.375 28.935V35.715C18.375 38.55 18.555 38.88 21.24 40.695L27.72 44.43C28.365 44.82 29.175 44.985 30 44.985C30.81 44.985 31.635 44.805 32.28 44.43L38.82 40.65C41.46 38.88 41.625 38.565 41.625 35.715V28.935C41.625 26.1 41.445 25.77 38.76 23.955ZM34.185 32.25L33.27 33.375C33.12 33.54 33.015 33.855 33.03 34.08L33.12 35.52C33.18 36.405 32.55 36.855 31.725 36.54L30.39 36C30.18 35.925 29.835 35.925 29.625 36L28.29 36.525C27.465 36.855 26.835 36.39 26.895 35.505L26.985 34.065C27 33.84 26.895 33.525 26.745 33.36L25.815 32.25C25.245 31.575 25.5 30.825 26.355 30.6L27.75 30.24C27.975 30.18 28.23 29.97 28.35 29.79L29.13 28.59C29.61 27.84 30.375 27.84 30.87 28.59L31.65 29.79C31.77 29.985 32.04 30.18 32.25 30.24L33.645 30.6C34.5 30.825 34.755 31.575 34.185 32.25Z" fill="white"/>
</svg>
