<svg xmlns="http://www.w3.org/2000/svg" xmlns:xlink="http://www.w3.org/1999/xlink" width="50" zoomAndPan="magnify" viewBox="0 0 37.5 37.499999" height="50" preserveAspectRatio="xMidYMid meet" version="1.0"><path fill="#2f6a62" d="M 36.90625 18.355469 C 36.90625 28.542969 28.640625 36.808594 18.453125 36.808594 C 8.265625 36.808594 0 28.542969 0 18.355469 C 0 8.167969 8.265625 -0.0976562 18.453125 -0.0976562 C 28.640625 -0.0976562 36.90625 8.167969 36.90625 18.355469 Z M 1.476562 18.355469 C 1.476562 27.730469 9.082031 35.332031 18.453125 35.332031 C 27.828125 35.332031 35.433594 27.730469 35.433594 18.355469 C 35.433594 8.984375 27.828125 1.378906 18.453125 1.378906 C 9.082031 1.378906 1.476562 8.984375 1.476562 18.355469 Z M 12.535156 18.878906 C 12.242188 18.585938 12.242188 18.125 12.535156 17.832031 L 20.882812 9.480469 C 21.175781 9.199219 21.636719 9.199219 21.929688 9.480469 L 22.976562 10.527344 C 23.261719 10.8125 23.261719 11.28125 22.976562 11.574219 L 16.1875 18.355469 L 22.976562 25.136719 C 23.261719 25.429688 23.261719 25.898438 22.976562 26.183594 L 21.929688 27.230469 C 21.636719 27.511719 21.175781 27.511719 20.882812 27.230469 Z M 12.535156 18.878906 " fill-opacity="1" fill-rule="nonzero"/></svg>