<svg width="20" height="21" viewBox="0 0 20 21" fill="none" xmlns="http://www.w3.org/2000/svg">
<path d="M6.66667 18.8333H13.3333C16.6833 18.8333 17.2833 17.4917 17.4583 15.8583L18.0833 9.19167C18.3083 7.15833 17.725 5.5 14.1667 5.5H5.83333C2.275 5.5 1.69166 7.15833 1.91666 9.19167L2.54166 15.8583C2.71666 17.4917 3.31666 18.8333 6.66667 18.8333Z" stroke="#2F6A62" stroke-width="1.5" stroke-miterlimit="10" stroke-linecap="round" stroke-linejoin="round"/>
<path d="M6.66669 5.5V4.83333C6.66669 3.35833 6.66669 2.16667 9.33335 2.16667H10.6667C13.3334 2.16667 13.3334 3.35833 13.3334 4.83333V5.5" stroke="#2F6A62" stroke-width="1.5" stroke-miterlimit="10" stroke-linecap="round" stroke-linejoin="round"/>
<path d="M11.6666 11.3333V12.1667C11.6666 12.175 11.6666 12.175 11.6666 12.1833C11.6666 13.0917 11.6583 13.8333 9.99998 13.8333C8.34998 13.8333 8.33331 13.1 8.33331 12.1917V11.3333C8.33331 10.5 8.33331 10.5 9.16665 10.5H10.8333C11.6666 10.5 11.6666 10.5 11.6666 11.3333Z" stroke="#2F6A62" stroke-width="1.5" stroke-miterlimit="10" stroke-linecap="round" stroke-linejoin="round"/>
<path d="M18.0417 9.66667C16.1167 11.0667 13.9167 11.9 11.6667 12.1833" stroke="#2F6A62" stroke-width="1.5" stroke-miterlimit="10" stroke-linecap="round" stroke-linejoin="round"/>
<path d="M2.18335 9.89167C4.05835 11.175 6.17502 11.95 8.33335 12.1917" stroke="#2F6A62" stroke-width="1.5" stroke-miterlimit="10" stroke-linecap="round" stroke-linejoin="round"/>
</svg>
