<svg width="60" height="60" viewBox="0 0 60 60" fill="none" xmlns="http://www.w3.org/2000/svg">
<path d="M12.5 20C8.35 20 5 23.35 5 27.5V47.5C5 51.65 8.35 55 12.5 55H16.25C19 55 21.25 52.75 21.25 50V25C21.25 22.25 19 20 16.25 20H12.5ZM15 42.5C15 43.525 14.15 44.375 13.125 44.375C12.1 44.375 11.25 43.525 11.25 42.5V32.5C11.25 31.475 12.1 30.625 13.125 30.625C14.15 30.625 15 31.475 15 32.5V42.5Z" fill="#2F6A62"/>
<path d="M47.5 5H32.5C28.35 5 25 8.35 25 12.5V47.5C25 51.65 28.35 55 32.5 55H33.75C34.45 55 35 54.45 35 53.75V45C35 43.625 36.125 42.5 37.5 42.5H42.5C43.875 42.5 45 43.625 45 45V53.75C45 54.45 45.55 55 46.25 55H47.5C51.65 55 55 51.65 55 47.5V12.5C55 8.35 51.65 5 47.5 5ZM36.875 32.5C36.875 33.525 36.025 34.375 35 34.375C33.975 34.375 33.125 33.525 33.125 32.5V20C33.125 18.975 33.975 18.125 35 18.125C36.025 18.125 36.875 18.975 36.875 20V32.5ZM46.875 32.5C46.875 33.525 46.025 34.375 45 34.375C43.975 34.375 43.125 33.525 43.125 32.5V20C43.125 18.975 43.975 18.125 45 18.125C46.025 18.125 46.875 18.975 46.875 20V32.5Z" fill="#2F6A62"/>
</svg>
