<svg width="21" height="21" viewBox="0 0 21 21" fill="none" xmlns="http://www.w3.org/2000/svg">
<path d="M14.4166 16.3167H6.58326C6.23326 16.3167 5.84159 16.0417 5.72492 15.7083L2.27492 6.05833C1.78326 4.67499 2.35826 4.24999 3.54159 5.09999L6.79159 7.42499C7.33326 7.79999 7.94992 7.60833 8.18326 6.99999L9.64992 3.09166C10.1166 1.84166 10.8916 1.84166 11.3583 3.09166L12.8249 6.99999C13.0583 7.60833 13.6749 7.79999 14.2083 7.42499L17.2583 5.24999C18.5583 4.31666 19.1833 4.79166 18.6499 6.29999L15.2833 15.725C15.1583 16.0417 14.7666 16.3167 14.4166 16.3167Z" stroke="#2F6A62" stroke-width="2" stroke-linecap="round" stroke-linejoin="round"/>
<path d="M5.91675 18.8333H15.0834" stroke="#2F6A62" stroke-width="2" stroke-linecap="round" stroke-linejoin="round"/>
<path d="M8.41675 12.1667H12.5834" stroke="#2F6A62" stroke-width="2" stroke-linecap="round" stroke-linejoin="round"/>
</svg>
