<svg width="60" height="60" viewBox="0 0 60 60" fill="none" xmlns="http://www.w3.org/2000/svg">
<rect width="60" height="60" rx="30" fill="#2F6A62"/>
<path d="M28.875 39.375H25.5C23.85 39.375 22.5 40.725 22.5 42.375V42.75H21C20.385 42.75 19.875 43.26 19.875 43.875C19.875 44.49 20.385 45 21 45H39C39.615 45 40.125 44.49 40.125 43.875C40.125 43.26 39.615 42.75 39 42.75H37.5V42.375C37.5 40.725 36.15 39.375 34.5 39.375H31.125V35.94C30.75 35.985 30.375 36 30 36C29.625 36 29.25 35.985 28.875 35.94V39.375Z" fill="white"/>
<path d="M39.7199 29.46C40.7099 29.085 41.5799 28.47 42.2699 27.78C43.6649 26.235 44.5799 24.39 44.5799 22.23C44.5799 20.07 42.8849 18.375 40.7249 18.375H39.8849C38.9099 16.38 36.8699 15 34.4999 15H25.4999C23.1299 15 21.0899 16.38 20.1149 18.375H19.2749C17.1149 18.375 15.4199 20.07 15.4199 22.23C15.4199 24.39 16.3349 26.235 17.7299 27.78C18.4199 28.47 19.2899 29.085 20.2799 29.46C21.8399 33.3 25.5899 36 29.9999 36C34.4099 36 38.1599 33.3 39.7199 29.46ZM34.2599 24.675L33.3299 25.815C33.1799 25.98 33.0749 26.31 33.0899 26.535L33.1799 28.005C33.2399 28.905 32.5949 29.37 31.7549 29.04L30.3899 28.5C30.1799 28.425 29.8199 28.425 29.6099 28.5L28.2449 29.04C27.4049 29.37 26.7599 28.905 26.8199 28.005L26.9099 26.535C26.9249 26.31 26.8199 25.98 26.6699 25.815L25.7399 24.675C25.1549 23.985 25.4099 23.22 26.2799 22.995L27.7049 22.635C27.9299 22.575 28.1999 22.365 28.3199 22.17L29.1149 20.94C29.6099 20.175 30.3899 20.175 30.8849 20.94L31.6799 22.17C31.7999 22.365 32.0699 22.575 32.2949 22.635L33.7199 22.995C34.5899 23.22 34.8449 23.985 34.2599 24.675Z" fill="white"/>
</svg>
