<svg xmlns="http://www.w3.org/2000/svg" xmlns:xlink="http://www.w3.org/1999/xlink" width="50" zoomAndPan="magnify" viewBox="0 0 37.5 37.499999" height="50" preserveAspectRatio="xMidYMid meet" version="1.0"><defs><clipPath id="f745c463ab"><path d="M 0 0.460938 L 37.007812 0.460938 L 37.007812 36.730469 L 0 36.730469 Z M 0 0.460938 " clip-rule="nonzero"/></clipPath></defs><g clip-path="url(#f745c463ab)"><path fill="#2f6a62" d="M 35.308594 8.929688 C 34.929688 8.882812 34.488281 8.855469 34.035156 8.832031 L 34.035156 7.816406 C 34.035156 7.554688 33.980469 7.300781 33.878906 7.0625 L 35.515625 4.125 C 35.753906 3.710938 35.855469 3.269531 35.824219 2.792969 C 35.789062 2.3125 35.625 1.886719 35.332031 1.511719 C 35.039062 1.136719 34.664062 0.875 34.207031 0.726562 C 33.753906 0.582031 33.296875 0.574219 32.835938 0.710938 C 32.222656 0.898438 31.761719 1.277344 31.457031 1.84375 L 29.425781 5.488281 C 27.519531 5.417969 25.640625 5.625 23.792969 6.105469 C 21.945312 6.589844 20.207031 7.328125 18.578125 8.328125 C 16.929688 7.316406 15.167969 6.566406 13.292969 6.082031 C 11.421875 5.601562 9.519531 5.402344 7.585938 5.488281 C 6.574219 5.546875 5.574219 5.6875 4.589844 5.914062 C 4.375 5.964844 4.171875 6.046875 3.988281 6.164062 C 3.800781 6.28125 3.636719 6.425781 3.5 6.597656 C 3.363281 6.773438 3.261719 6.960938 3.1875 7.171875 C 3.117188 7.378906 3.082031 7.59375 3.082031 7.816406 L 3.082031 8.8125 L 1.949219 8.8125 C 1.691406 8.8125 1.441406 8.863281 1.203125 8.960938 C 0.964844 9.058594 0.753906 9.199219 0.574219 9.382812 C 0.390625 9.566406 0.25 9.773438 0.148438 10.011719 C 0.0507812 10.25 0 10.5 0 10.757812 L 0 30.863281 C 0.00390625 31.117188 0.0546875 31.359375 0.152344 31.59375 C 0.25 31.828125 0.390625 32.035156 0.570312 32.214844 C 0.75 32.394531 0.957031 32.53125 1.191406 32.632812 C 1.425781 32.730469 1.671875 32.777344 1.925781 32.78125 C 3.429688 32.78125 4.941406 32.84375 6.414062 32.921875 C 10.132812 33.15625 13.605469 34.199219 16.832031 36.058594 C 17.378906 36.363281 17.964844 36.519531 18.589844 36.519531 C 19.171875 36.519531 19.71875 36.386719 20.238281 36.125 C 24.054688 34.167969 27.539062 33.121094 30.839844 32.9375 C 32.238281 32.863281 33.675781 32.820312 35.105469 32.804688 C 35.359375 32.800781 35.605469 32.746094 35.835938 32.644531 C 36.070312 32.546875 36.273438 32.402344 36.453125 32.222656 C 36.628906 32.039062 36.765625 31.832031 36.863281 31.597656 C 36.957031 31.363281 37.007812 31.117188 37.007812 30.863281 L 37.007812 10.867188 C 37.007812 10.628906 36.964844 10.402344 36.882812 10.179688 C 36.800781 9.957031 36.679688 9.757812 36.523438 9.578125 C 36.367188 9.402344 36.183594 9.257812 35.976562 9.144531 C 35.765625 9.03125 35.546875 8.960938 35.308594 8.929688 Z M 32.511719 2.449219 C 32.664062 2.1875 32.882812 2.019531 33.175781 1.941406 C 33.390625 1.882812 33.605469 1.886719 33.820312 1.953125 C 34.03125 2.023438 34.207031 2.144531 34.347656 2.320312 C 34.484375 2.496094 34.5625 2.695312 34.578125 2.917969 C 34.597656 3.140625 34.550781 3.351562 34.441406 3.546875 L 32.6875 6.722656 L 30.160156 11.195312 L 28.230469 10.113281 Z M 27.136719 14.65625 C 27.09375 14.703125 27.042969 14.710938 26.988281 14.679688 C 26.929688 14.648438 26.910156 14.601562 26.929688 14.539062 L 27.753906 11.273438 L 29.390625 12.1875 Z M 19.210938 9.34375 C 22.132812 7.570312 25.300781 6.6875 28.71875 6.691406 L 26.867188 10.035156 C 26.863281 10.058594 26.863281 10.085938 26.867188 10.109375 C 26.867188 10.109375 26.867188 10.140625 26.867188 10.160156 C 24.910156 10.511719 23.097656 11.230469 21.433594 12.316406 C 21.289062 12.40625 21.195312 12.535156 21.15625 12.703125 C 21.117188 12.867188 21.144531 13.023438 21.234375 13.167969 C 21.355469 13.363281 21.53125 13.457031 21.761719 13.457031 C 21.878906 13.457031 21.988281 13.425781 22.085938 13.367188 C 23.449219 12.484375 24.917969 11.855469 26.496094 11.484375 L 25.675781 14.277344 C 25.628906 14.457031 25.613281 14.640625 25.640625 14.828125 C 24.121094 15.25 22.699219 15.882812 21.371094 16.726562 C 21.226562 16.816406 21.132812 16.945312 21.097656 17.113281 C 21.058594 17.277344 21.082031 17.433594 21.175781 17.578125 C 21.296875 17.773438 21.46875 17.867188 21.699219 17.867188 C 21.816406 17.867188 21.925781 17.835938 22.023438 17.777344 C 23.398438 16.886719 24.882812 16.257812 26.476562 15.886719 C 26.640625 15.957031 26.8125 15.996094 26.988281 16 C 27.316406 15.996094 27.605469 15.890625 27.855469 15.679688 C 28.589844 15.601562 29.324219 15.636719 30.050781 15.789062 C 30.105469 15.796875 30.164062 15.796875 30.222656 15.789062 C 30.390625 15.8125 30.546875 15.773438 30.683594 15.667969 C 30.820312 15.566406 30.902344 15.429688 30.925781 15.257812 C 30.949219 15.089844 30.910156 14.933594 30.804688 14.796875 C 30.703125 14.660156 30.566406 14.578125 30.394531 14.554688 C 29.949219 14.449219 29.5 14.386719 29.042969 14.371094 L 30.839844 12.429688 L 30.914062 12.328125 L 32.761719 8.988281 L 32.761719 27.527344 C 32.765625 27.75 32.679688 27.933594 32.503906 28.074219 C 32.335938 28.21875 32.140625 28.273438 31.925781 28.230469 C 31.234375 28.09375 30.539062 28 29.839844 27.945312 C 27.988281 27.835938 26.160156 27.984375 24.351562 28.398438 C 22.542969 28.8125 20.832031 29.472656 19.210938 30.375 Z M 4.316406 7.816406 C 4.3125 7.648438 4.363281 7.503906 4.464844 7.371094 C 4.5625 7.242188 4.695312 7.15625 4.855469 7.117188 C 5.777344 6.90625 6.710938 6.773438 7.652344 6.714844 C 9.472656 6.640625 11.265625 6.832031 13.027344 7.292969 C 14.792969 7.75 16.449219 8.460938 17.996094 9.417969 L 17.996094 30.433594 C 16.359375 29.507812 14.628906 28.835938 12.796875 28.417969 C 10.964844 27.996094 9.109375 27.847656 7.234375 27.964844 C 6.535156 28.015625 5.84375 28.105469 5.15625 28.242188 C 4.941406 28.285156 4.746094 28.234375 4.578125 28.09375 C 4.402344 27.949219 4.316406 27.765625 4.316406 27.539062 Z M 35.773438 30.863281 C 35.765625 31.050781 35.691406 31.214844 35.558594 31.34375 C 35.421875 31.476562 35.257812 31.546875 35.070312 31.546875 C 33.621094 31.546875 32.164062 31.605469 30.753906 31.683594 C 27.304688 31.875 23.679688 32.964844 19.652344 35.027344 C 19.296875 35.203125 18.921875 35.289062 18.527344 35.28125 C 18.132812 35.273438 17.765625 35.171875 17.417969 34.984375 C 14.023438 33.03125 10.371094 31.9375 6.464844 31.695312 C 4.972656 31.609375 3.441406 31.558594 1.917969 31.546875 C 1.734375 31.539062 1.574219 31.46875 1.441406 31.339844 C 1.3125 31.207031 1.242188 31.050781 1.234375 30.863281 L 1.234375 10.757812 C 1.234375 10.558594 1.304688 10.394531 1.445312 10.253906 C 1.585938 10.117188 1.753906 10.046875 1.949219 10.046875 L 3.082031 10.046875 L 3.082031 27.527344 C 3.082031 28.140625 3.320312 28.640625 3.792969 29.03125 C 4.261719 29.421875 4.792969 29.558594 5.390625 29.4375 C 6.03125 29.316406 6.675781 29.230469 7.328125 29.179688 C 9.242188 29.066406 11.125 29.25 12.980469 29.726562 C 14.839844 30.207031 16.578125 30.953125 18.199219 31.972656 C 18.300781 32.03125 18.40625 32.0625 18.523438 32.058594 L 18.613281 32.058594 C 18.730469 32.058594 18.835938 32.027344 18.933594 31.96875 C 20.558594 30.949219 22.296875 30.203125 24.152344 29.726562 C 26.007812 29.25 27.890625 29.070312 29.800781 29.179688 C 30.457031 29.226562 31.105469 29.3125 31.75 29.4375 C 32.332031 29.539062 32.851562 29.402344 33.304688 29.027344 C 33.773438 28.636719 34.007812 28.136719 34.007812 27.527344 L 34.007812 10.066406 C 34.410156 10.066406 34.792969 10.113281 35.132812 10.160156 C 35.308594 10.183594 35.457031 10.261719 35.574219 10.394531 C 35.691406 10.53125 35.75 10.6875 35.75 10.867188 Z M 6.921875 10.972656 C 6.875 10.808594 6.890625 10.65625 6.972656 10.507812 C 7.054688 10.359375 7.175781 10.261719 7.339844 10.214844 C 7.492188 10.164062 11.242188 9.117188 16.363281 12.335938 C 16.480469 12.410156 16.5625 12.507812 16.613281 12.636719 C 16.664062 12.765625 16.667969 12.898438 16.632812 13.03125 C 16.59375 13.164062 16.519531 13.269531 16.410156 13.351562 C 16.296875 13.4375 16.175781 13.476562 16.035156 13.476562 C 15.917969 13.476562 15.808594 13.445312 15.710938 13.378906 C 11.089844 10.472656 7.691406 11.386719 7.691406 11.390625 C 7.527344 11.441406 7.367188 11.425781 7.21875 11.34375 C 7.066406 11.261719 6.96875 11.136719 6.921875 10.972656 Z M 6.921875 15.34375 C 6.871094 15.183594 6.890625 15.027344 6.972656 14.875 C 7.054688 14.726562 7.175781 14.628906 7.339844 14.582031 C 7.492188 14.539062 11.242188 13.484375 16.363281 16.703125 C 16.507812 16.792969 16.601562 16.921875 16.636719 17.085938 C 16.675781 17.253906 16.652344 17.410156 16.558594 17.554688 C 16.4375 17.746094 16.265625 17.84375 16.035156 17.84375 C 15.917969 17.84375 15.808594 17.8125 15.710938 17.75 C 11.089844 14.847656 7.691406 15.753906 7.691406 15.765625 C 7.527344 15.816406 7.367188 15.796875 7.21875 15.714844 C 7.066406 15.632812 6.96875 15.511719 6.921875 15.34375 Z M 6.921875 19.710938 C 6.875 19.550781 6.890625 19.394531 6.972656 19.246094 C 7.054688 19.097656 7.175781 19 7.339844 18.953125 C 7.492188 18.902344 11.242188 17.847656 16.363281 21.074219 C 16.507812 21.164062 16.601562 21.292969 16.636719 21.460938 C 16.675781 21.625 16.652344 21.78125 16.558594 21.925781 C 16.4375 22.121094 16.265625 22.214844 16.035156 22.214844 C 15.917969 22.21875 15.808594 22.183594 15.710938 22.117188 C 11.089844 19.210938 7.691406 20.125 7.691406 20.132812 C 7.527344 20.179688 7.367188 20.164062 7.21875 20.082031 C 7.066406 20 6.96875 19.878906 6.921875 19.710938 Z M 6.921875 24.085938 C 6.871094 23.921875 6.890625 23.765625 6.972656 23.617188 C 7.054688 23.464844 7.175781 23.367188 7.339844 23.320312 C 7.492188 23.269531 11.242188 22.222656 16.363281 25.441406 C 16.507812 25.53125 16.601562 25.660156 16.636719 25.828125 C 16.675781 25.992188 16.652344 26.148438 16.558594 26.292969 C 16.445312 26.5 16.273438 26.605469 16.035156 26.613281 C 15.917969 26.613281 15.808594 26.582031 15.710938 26.519531 C 11.050781 23.589844 7.722656 24.523438 7.691406 24.535156 C 7.523438 24.585938 7.363281 24.5625 7.210938 24.476562 C 7.058594 24.386719 6.960938 24.257812 6.921875 24.085938 Z M 21.175781 21.925781 C 21.078125 21.78125 21.050781 21.621094 21.089844 21.453125 C 21.128906 21.28125 21.222656 21.152344 21.371094 21.0625 C 26.519531 17.847656 30.222656 18.902344 30.394531 18.953125 C 30.574219 18.988281 30.710938 19.082031 30.804688 19.238281 C 30.902344 19.394531 30.921875 19.558594 30.871094 19.734375 C 30.820312 19.90625 30.714844 20.035156 30.550781 20.113281 C 30.386719 20.195312 30.21875 20.199219 30.050781 20.132812 C 29.988281 20.132812 26.621094 19.226562 22.03125 22.117188 C 21.933594 22.183594 21.824219 22.21875 21.703125 22.214844 C 21.472656 22.21875 21.296875 22.121094 21.175781 21.925781 Z M 22.023438 26.492188 C 21.925781 26.550781 21.816406 26.582031 21.699219 26.582031 C 21.46875 26.582031 21.296875 26.488281 21.175781 26.292969 C 21.082031 26.148438 21.058594 25.992188 21.097656 25.828125 C 21.132812 25.660156 21.226562 25.53125 21.371094 25.441406 C 26.519531 22.222656 30.222656 23.277344 30.394531 23.320312 C 30.558594 23.367188 30.679688 23.464844 30.761719 23.617188 C 30.84375 23.765625 30.863281 23.921875 30.816406 24.085938 C 30.765625 24.25 30.667969 24.371094 30.519531 24.453125 C 30.371094 24.535156 30.214844 24.550781 30.050781 24.503906 C 30 24.492188 26.625 23.589844 22.023438 26.492188 Z M 22.023438 26.492188 " fill-opacity="1" fill-rule="nonzero"/></g></svg>