<svg width="20" height="21" viewBox="0 0 20 21" fill="none" xmlns="http://www.w3.org/2000/svg">
<path d="M18.275 6.13334L15.4666 17.4084C15.2666 18.25 14.5166 18.8333 13.65 18.8333H2.69997C1.44163 18.8333 0.541645 17.6 0.916645 16.3916L4.42497 5.12504C4.66664 4.34171 5.39165 3.79997 6.20832 3.79997H16.4583C17.25 3.79997 17.9083 4.28331 18.1833 4.94997C18.3416 5.30831 18.375 5.71668 18.275 6.13334Z" stroke="#2F6A62" stroke-width="1.5" stroke-miterlimit="10"/>
<path d="M13.3333 18.8333H17.3166C18.3916 18.8333 19.2333 17.925 19.1583 16.85L18.3333 5.5" stroke="#2F6A62" stroke-width="1.5" stroke-miterlimit="10" stroke-linecap="round" stroke-linejoin="round"/>
<path d="M8.06665 5.81667L8.93332 2.21672" stroke="#2F6A62" stroke-width="1.5" stroke-miterlimit="10" stroke-linecap="round" stroke-linejoin="round"/>
<path d="M13.65 5.82501L14.4334 2.20837" stroke="#2F6A62" stroke-width="1.5" stroke-miterlimit="10" stroke-linecap="round" stroke-linejoin="round"/>
<path d="M6.41669 10.5H13.0834" stroke="#2F6A62" stroke-width="1.5" stroke-miterlimit="10" stroke-linecap="round" stroke-linejoin="round"/>
<path d="M5.58337 13.8333H12.25" stroke="#2F6A62" stroke-width="1.5" stroke-miterlimit="10" stroke-linecap="round" stroke-linejoin="round"/>
</svg>
