<svg width="20" height="20" viewBox="0 0 20 20" fill="none" xmlns="http://www.w3.org/2000/svg">
<path d="M7.08335 15.8083H6.66669C3.33335 15.8083 1.66669 14.975 1.66669 10.8083V6.64165C1.66669 3.30831 3.33335 1.64165 6.66669 1.64165H13.3334C16.6667 1.64165 18.3334 3.30831 18.3334 6.64165V10.8083C18.3334 14.1416 16.6667 15.8083 13.3334 15.8083H12.9167C12.6584 15.8083 12.4084 15.9333 12.25 16.1417L11 17.8083C10.45 18.5417 9.55001 18.5417 9.00001 17.8083L7.75001 16.1417C7.61668 15.9583 7.31669 15.8083 7.08335 15.8083Z" stroke="#0A0723" stroke-width="1.5" stroke-miterlimit="10" stroke-linecap="round" stroke-linejoin="round"/>
<path d="M6.66667 7.25002L5 8.91668L6.66667 10.5833" stroke="#0A0723" stroke-width="1.5" stroke-miterlimit="10" stroke-linecap="round" stroke-linejoin="round"/>
<path d="M13.3333 7.25002L15 8.91668L13.3333 10.5833" stroke="#0A0723" stroke-width="1.5" stroke-miterlimit="10" stroke-linecap="round" stroke-linejoin="round"/>
<path d="M10.8334 6.97499L9.16669 10.8584" stroke="#0A0723" stroke-width="1.5" stroke-miterlimit="10" stroke-linecap="round" stroke-linejoin="round"/>
</svg>
