<svg width="41" height="40" viewBox="0 0 41 40" fill="none" xmlns="http://www.w3.org/2000/svg">
<path d="M13.5834 3.33331V8.33331" stroke="#2F6A62" stroke-width="2" stroke-miterlimit="10" stroke-linecap="round" stroke-linejoin="round"/>
<path d="M26.9166 3.33331V8.33331" stroke="#2F6A62" stroke-width="2" stroke-miterlimit="10" stroke-linecap="round" stroke-linejoin="round"/>
<path d="M35.25 14.1666V22.7167C33.7667 21.5333 31.8833 20.8333 29.8333 20.8333C27.7833 20.8333 25.8667 21.5499 24.3667 22.7666C22.35 24.3499 21.0833 26.8333 21.0833 29.5833C21.0833 31.2166 21.55 32.7833 22.35 34.0833C22.9667 35.1 23.7667 35.9833 24.7167 36.6666H13.5833C7.75 36.6666 5.25 33.3333 5.25 28.3333V14.1666C5.25 9.16665 7.75 5.83331 13.5833 5.83331H26.9167C32.75 5.83331 35.25 9.16665 35.25 14.1666Z" stroke="#2F6A62" stroke-width="2" stroke-miterlimit="10" stroke-linecap="round" stroke-linejoin="round"/>
<path d="M11.9166 18.3333H21.9166" stroke="#2F6A62" stroke-width="2" stroke-miterlimit="10" stroke-linecap="round" stroke-linejoin="round"/>
<path d="M11.9166 26.6667H16.2833" stroke="#2F6A62" stroke-width="2" stroke-miterlimit="10" stroke-linecap="round" stroke-linejoin="round"/>
<path d="M38.5834 29.5833C38.5834 31.2166 38.1167 32.7833 37.3167 34.0833C36.85 34.8833 36.2667 35.5833 35.5834 36.15C34.0501 37.5166 32.05 38.3333 29.8334 38.3333C27.9167 38.3333 26.15 37.7166 24.7167 36.6666C23.7667 35.9833 22.9667 35.1 22.3501 34.0833C21.5501 32.7833 21.0834 31.2166 21.0834 29.5833C21.0834 26.8333 22.35 24.3499 24.3667 22.7666C25.8667 21.5499 27.7834 20.8333 29.8334 20.8333C31.8834 20.8333 33.7667 21.5333 35.25 22.7167C37.2834 24.3167 38.5834 26.8 38.5834 29.5833Z" stroke="#2F6A62" stroke-width="2" stroke-miterlimit="10" stroke-linecap="round" stroke-linejoin="round"/>
<path d="M29.8333 33.75C29.8333 31.45 31.7 29.5834 34 29.5834C31.7 29.5834 29.8333 27.7167 29.8333 25.4167C29.8333 27.7167 27.9666 29.5834 25.6666 29.5834C27.9666 29.5834 29.8333 31.45 29.8333 33.75Z" stroke="#2F6A62" stroke-width="2" stroke-linecap="round" stroke-linejoin="round"/>
</svg>
