<svg width="32" height="33" viewBox="0 0 32 33" fill="none" xmlns="http://www.w3.org/2000/svg">
<path d="M15.9598 3.16669C8.5998 3.16669 2.62646 9.14002 2.62646 16.5C2.62646 23.86 8.5998 29.8334 15.9598 29.8334C23.3198 29.8334 29.2931 23.86 29.2931 16.5C29.2931 9.14002 23.3331 3.16669 15.9598 3.16669ZM19.9598 19.4734L16.0931 21.7C15.6131 21.98 15.0798 22.1134 14.5598 22.1134C14.0265 22.1134 13.5065 21.98 13.0265 21.7C12.0665 21.14 11.4931 20.1534 11.4931 19.0334V14.5667C11.4931 13.46 12.0665 12.46 13.0265 11.9C13.9865 11.34 15.1331 11.34 16.1065 11.9L19.9731 14.1267C20.9331 14.6867 21.5065 15.6734 21.5065 16.7934C21.5065 17.9134 20.9331 18.9134 19.9598 19.4734Z" fill="#0A0723"/>
</svg>
