<svg width="20" height="20" viewBox="0 0 20 20" fill="none" xmlns="http://www.w3.org/2000/svg">
<path d="M17.8917 15.8333V4.16667C17.8917 2.50001 17.0583 1.66667 15.3917 1.66667H12.0583C10.3917 1.66667 9.55835 2.50001 9.55835 4.16667V15.8333C9.55835 17.5 10.3917 18.3333 12.0583 18.3333H15.3917C17.0583 18.3333 17.8917 17.5 17.8917 15.8333Z" stroke="#0A0723" stroke-width="1.5" stroke-linecap="round"/>
<path d="M9.55835 5H13.725" stroke="#0A0723" stroke-width="1.5" stroke-linecap="round"/>
<path d="M9.55835 15H12.8917" stroke="#0A0723" stroke-width="1.5" stroke-linecap="round"/>
<path d="M9.55835 11.625L13.725 11.6667" stroke="#0A0723" stroke-width="1.5" stroke-linecap="round"/>
<path d="M9.55835 8.33333H12.0583" stroke="#0A0723" stroke-width="1.5" stroke-linecap="round"/>
<path d="M4.57494 1.66667C3.21661 1.66667 2.10828 2.77501 2.10828 4.12501V14.925C2.10828 15.3 2.26661 15.8667 2.45828 16.1917L3.14161 17.325C3.92494 18.6333 5.21661 18.6333 5.99994 17.325L6.68328 16.1917C6.87494 15.8667 7.03328 15.3 7.03328 14.925V4.12501C7.03328 2.77501 5.92494 1.66667 4.57494 1.66667Z" stroke="#0A0723" stroke-width="1.5" stroke-linecap="round"/>
<path d="M7.03328 5.83333H2.10828" stroke="#0A0723" stroke-width="1.5" stroke-linecap="round"/>
</svg>
