<svg width="50" height="50" viewBox="0 0 50 50" fill="none" xmlns="http://www.w3.org/2000/svg">
<rect width="50" height="50" rx="25" fill="#2F6A62"/>
<path d="M33.1252 15.1375L26.8877 12.8C25.8502 12.4125 24.1502 12.4125 23.1127 12.8L16.8752 15.1375C15.4377 15.675 14.2627 17.375 14.2627 18.9V28.1875C14.2627 29.6625 15.2377 31.6 16.4252 32.4875L21.8002 36.5C23.5627 37.825 26.4627 37.825 28.2252 36.5L33.6002 32.4875C34.7877 31.6 35.7627 29.6625 35.7627 28.1875V18.9C35.7377 17.375 34.5627 15.675 33.1252 15.1375ZM24.9127 18.7875C26.3877 18.7875 27.5877 19.9875 27.5877 21.4625C27.5877 22.9125 26.4502 24.075 25.0127 24.125H24.9877H24.9627C24.9377 24.125 24.9127 24.125 24.8877 24.125C23.3877 24.075 22.2627 22.9125 22.2627 21.4625C22.2502 19.9875 23.4502 18.7875 24.9127 18.7875ZM27.7377 30.45C26.9752 30.95 25.9877 31.2125 25.0002 31.2125C24.0127 31.2125 23.0127 30.9625 22.2627 30.45C21.5502 29.975 21.1627 29.325 21.1502 28.6125C21.1502 27.9125 21.5502 27.2375 22.2627 26.7625C23.7752 25.7625 26.2377 25.7625 27.7502 26.7625C28.4627 27.2375 28.8627 27.8875 28.8627 28.6C28.8502 29.3 28.4502 29.975 27.7377 30.45Z" fill="white"/>
</svg>
