<svg width="20" height="20" viewBox="0 0 20 20" fill="none" xmlns="http://www.w3.org/2000/svg">
<path d="M8.7418 1.85836L4.58346 3.42503C3.62513 3.78336 2.8418 4.9167 2.8418 5.93336V12.125C2.8418 13.1084 3.4918 14.4 4.28346 14.9917L7.8668 17.6667C9.0418 18.55 10.9751 18.55 12.1501 17.6667L15.7335 14.9917C16.5251 14.4 17.1751 13.1084 17.1751 12.125V5.93336C17.1751 4.90836 16.3918 3.77503 15.4335 3.4167L11.2751 1.85836C10.5668 1.60003 9.43346 1.60003 8.7418 1.85836Z" stroke="#0A0723" stroke-width="1.5" stroke-linecap="round" stroke-linejoin="round"/>
<path d="M10.0002 10.4166C10.9206 10.4166 11.6668 9.67045 11.6668 8.74998C11.6668 7.82951 10.9206 7.08331 10.0002 7.08331C9.07969 7.08331 8.3335 7.82951 8.3335 8.74998C8.3335 9.67045 9.07969 10.4166 10.0002 10.4166Z" stroke="#0A0723" stroke-width="1.5" stroke-miterlimit="10" stroke-linecap="round" stroke-linejoin="round"/>
<path d="M10 10.4167V12.9167" stroke="#0A0723" stroke-width="1.5" stroke-miterlimit="10" stroke-linecap="round" stroke-linejoin="round"/>
</svg>
