<svg xmlns="http://www.w3.org/2000/svg" xmlns:xlink="http://www.w3.org/1999/xlink" viewBox="0,0,256,256" width="50px" height="50px" fill-rule="nonzero"><g fill="#2f6a62" fill-rule="nonzero" stroke="none" stroke-width="1" stroke-linecap="butt" stroke-linejoin="miter" stroke-miterlimit="10" stroke-dasharray="" stroke-dashoffset="0" font-family="none" font-weight="none" font-size="none" text-anchor="none" style="mix-blend-mode: normal"><g transform="scale(5.12,5.12)"><path d="M25,2c-12.682,0 -23,10.317 -23,23c0,12.683 10.318,23 23,23c12.682,0 23,-10.317 23,-23c0,-12.683 -10.318,-23 -23,-23zM37.735,12.679l-10.091,10.931c0.22,0.417 0.356,0.886 0.356,1.39c0,0.76 -0.292,1.447 -0.758,1.976l3.632,6.539c0.269,0.482 0.094,1.091 -0.388,1.359c-0.154,0.086 -0.321,0.126 -0.485,0.126c-0.352,0 -0.692,-0.186 -0.875,-0.515l-3.631,-6.535c-0.162,0.027 -0.325,0.05 -0.495,0.05c-1.657,0 -3,-1.343 -3,-3c0,-1.657 1.343,-3 3,-3c0.42,0 0.82,0.088 1.183,0.244l10.082,-10.923c0.375,-0.404 1.007,-0.431 1.413,-0.056c0.406,0.375 0.431,1.007 0.057,1.414z"></path></g></g></svg>