<svg xmlns="http://www.w3.org/2000/svg" xmlns:xlink="http://www.w3.org/1999/xlink" width="50" zoomAndPan="magnify" viewBox="0 0 37.5 37.499999" height="50" preserveAspectRatio="xMidYMid meet" version="1.0"><defs><clipPath id="b937861d6c"><path d="M 0 0 L 37.007812 0 L 37.007812 37.007812 L 0 37.007812 Z M 0 0 " clip-rule="nonzero"/></clipPath></defs><g clip-path="url(#b937861d6c)"><path fill="#2f6a62" d="M 18.503906 0 C 8.285156 0 0 8.285156 0 18.503906 C 0 28.722656 8.285156 37.007812 18.503906 37.007812 C 28.722656 37.007812 37.007812 28.722656 37.007812 18.503906 C 37.007812 8.285156 28.722656 0 18.503906 0 Z M 18.503906 33.636719 C 10.148438 33.636719 3.371094 26.863281 3.371094 18.503906 C 3.371094 10.148438 10.148438 3.375 18.503906 3.375 C 26.859375 3.375 33.636719 10.148438 33.636719 18.503906 C 33.636719 26.863281 26.859375 33.636719 18.503906 33.636719 Z M 27.308594 20.425781 L 17.605469 25.050781 C 16.453125 25.601562 15.09375 25.453125 14.082031 24.675781 C 13.253906 24.035156 12.769531 23.046875 12.769531 22.003906 L 12.769531 14.929688 C 12.769531 13.320312 13.800781 11.886719 15.332031 11.375 C 16.410156 11.015625 17.59375 11.167969 18.550781 11.785156 L 27.492188 17.558594 C 28.574219 18.253906 28.472656 19.871094 27.308594 20.425781 Z M 27.308594 20.425781 " fill-opacity="1" fill-rule="nonzero"/></g></svg>