<svg xmlns="http://www.w3.org/2000/svg" xmlns:xlink="http://www.w3.org/1999/xlink" width="134" zoomAndPan="magnify" viewBox="0 0 100.5 30.000001" height="40" preserveAspectRatio="xMidYMid meet" version="1.0"><defs><g/></defs><path fill="#2f6a62" d="M 17.503906 23.308594 C 17.53125 20.640625 16.859375 18.476562 16.003906 18.464844 C 15.148438 18.457031 14.433594 20.613281 14.410156 23.277344 C 14.382812 25.941406 15.054688 28.109375 15.910156 28.117188 C 16.765625 28.125 17.476562 25.972656 17.503906 23.308594 Z M 17.503906 23.308594 " fill-opacity="1" fill-rule="nonzero"/><path fill="#2f6a62" d="M 12.546875 22.703125 C 14 20.472656 14.601562 18.285156 13.886719 17.8125 C 13.171875 17.34375 11.414062 18.765625 9.960938 20.992188 C 8.503906 23.222656 7.90625 25.410156 8.617188 25.882812 C 9.332031 26.351562 11.09375 24.929688 12.546875 22.703125 Z M 12.546875 22.703125 " fill-opacity="1" fill-rule="nonzero"/><path fill="#2f6a62" d="M 8.695312 19.503906 C 11.117188 18.421875 12.800781 16.90625 12.453125 16.121094 C 12.105469 15.335938 9.859375 15.578125 7.4375 16.660156 C 5.015625 17.746094 3.335938 19.257812 3.683594 20.042969 C 4.03125 20.832031 6.273438 20.589844 8.695312 19.503906 Z M 8.695312 19.503906 " fill-opacity="1" fill-rule="nonzero"/><path fill="#2f6a62" d="M 12.160156 13.921875 C 12.292969 13.070312 10.273438 12.054688 7.652344 11.648438 C 5.035156 11.242188 2.804688 11.601562 2.675781 12.453125 C 2.546875 13.300781 4.5625 14.320312 7.183594 14.726562 C 9.800781 15.128906 12.03125 14.769531 12.160156 13.921875 Z M 12.160156 13.921875 " fill-opacity="1" fill-rule="nonzero"/><path fill="#2f6a62" d="M 13.101562 11.898438 C 13.667969 11.253906 12.515625 9.300781 10.53125 7.535156 C 8.542969 5.769531 6.476562 4.863281 5.910156 5.507812 C 5.34375 6.152344 6.496094 8.101562 8.480469 9.867188 C 10.464844 11.632812 12.535156 12.542969 13.101562 11.898438 Z M 13.101562 11.898438 " fill-opacity="1" fill-rule="nonzero"/><path fill="#2f6a62" d="M 14.972656 10.714844 C 15.796875 10.480469 15.878906 8.210938 15.15625 5.648438 C 14.433594 3.082031 13.183594 1.195312 12.363281 1.429688 C 11.539062 1.664062 11.457031 3.929688 12.179688 6.496094 C 12.902344 9.058594 14.152344 10.949219 14.972656 10.714844 Z M 14.972656 10.714844 " fill-opacity="1" fill-rule="nonzero"/><path fill="#2f6a62" d="M 20.058594 6.574219 C 20.832031 4.027344 20.796875 1.757812 19.976562 1.507812 C 19.160156 1.253906 17.871094 3.121094 17.097656 5.667969 C 16.328125 8.21875 16.363281 10.488281 17.183594 10.738281 C 18 10.988281 19.289062 9.125 20.058594 6.574219 Z M 20.058594 6.574219 " fill-opacity="1" fill-rule="nonzero"/><path fill="#2f6a62" d="M 23.695312 10.019531 C 25.714844 8.292969 26.902344 6.363281 26.347656 5.710938 C 25.796875 5.054688 23.710938 5.921875 21.691406 7.648438 C 19.671875 9.375 18.480469 11.304688 19.035156 11.957031 C 19.589844 12.613281 21.675781 11.746094 23.695312 10.019531 Z M 23.695312 10.019531 " fill-opacity="1" fill-rule="nonzero"/><path fill="#2f6a62" d="M 24.894531 14.894531 C 27.523438 14.542969 29.558594 13.5625 29.445312 12.710938 C 29.332031 11.859375 27.113281 11.457031 24.484375 11.808594 C 21.859375 12.164062 19.820312 13.140625 19.933594 13.992188 C 20.046875 14.84375 22.269531 15.246094 24.894531 14.894531 Z M 24.894531 14.894531 " fill-opacity="1" fill-rule="nonzero"/><path fill="#2f6a62" d="M 28.285156 20.289062 C 28.648438 19.511719 26.996094 17.960938 24.597656 16.832031 C 22.195312 15.699219 19.957031 15.414062 19.59375 16.191406 C 19.230469 16.972656 20.882812 18.519531 23.28125 19.648438 C 25.683594 20.78125 27.921875 21.066406 28.285156 20.289062 Z M 28.285156 20.289062 " fill-opacity="1" fill-rule="nonzero"/><path fill="#2f6a62" d="M 23.238281 26.03125 C 23.960938 25.574219 23.402344 23.375 21.992188 21.117188 C 20.582031 18.859375 18.851562 17.402344 18.128906 17.859375 C 17.40625 18.316406 17.960938 20.519531 19.371094 22.773438 C 20.78125 25.03125 22.511719 26.488281 23.238281 26.03125 Z M 23.238281 26.03125 " fill-opacity="1" fill-rule="nonzero"/><g fill="#000000" fill-opacity="1"><g transform="translate(31.554023, 18.869595)"><g><path d="M 4.40625 -9.515625 C 5.40625 -9.515625 6.28125 -9.3125 7.03125 -8.90625 C 7.78125 -8.507812 8.359375 -7.953125 8.765625 -7.234375 C 9.179688 -6.515625 9.390625 -5.6875 9.390625 -4.75 C 9.390625 -3.820312 9.179688 -2.992188 8.765625 -2.265625 C 8.359375 -1.546875 7.773438 -0.988281 7.015625 -0.59375 C 6.265625 -0.195312 5.394531 0 4.40625 0 L 0.84375 0 L 0.84375 -9.515625 Z M 4.25 -2 C 5.125 -2 5.804688 -2.238281 6.296875 -2.71875 C 6.785156 -3.195312 7.03125 -3.875 7.03125 -4.75 C 7.03125 -5.625 6.785156 -6.304688 6.296875 -6.796875 C 5.804688 -7.285156 5.125 -7.53125 4.25 -7.53125 L 3.15625 -7.53125 L 3.15625 -2 Z M 4.25 -2 "/></g></g></g><g fill="#000000" fill-opacity="1"><g transform="translate(41.398204, 18.869595)"><g><path d="M 2 -8.34375 C 1.59375 -8.34375 1.257812 -8.460938 1 -8.703125 C 0.75 -8.941406 0.625 -9.238281 0.625 -9.59375 C 0.625 -9.957031 0.75 -10.253906 1 -10.484375 C 1.257812 -10.722656 1.59375 -10.84375 2 -10.84375 C 2.394531 -10.84375 2.722656 -10.722656 2.984375 -10.484375 C 3.242188 -10.253906 3.375 -9.957031 3.375 -9.59375 C 3.375 -9.238281 3.242188 -8.941406 2.984375 -8.703125 C 2.722656 -8.460938 2.394531 -8.34375 2 -8.34375 Z M 3.15625 -7.5625 L 3.15625 0 L 0.84375 0 L 0.84375 -7.5625 Z M 3.15625 -7.5625 "/></g></g></g><g fill="#000000" fill-opacity="1"><g transform="translate(45.392754, 18.869595)"><g><path d="M 0.375 -3.796875 C 0.375 -4.566406 0.519531 -5.242188 0.8125 -5.828125 C 1.113281 -6.421875 1.515625 -6.875 2.015625 -7.1875 C 2.523438 -7.507812 3.09375 -7.671875 3.71875 -7.671875 C 4.25 -7.671875 4.710938 -7.5625 5.109375 -7.34375 C 5.515625 -7.125 5.828125 -6.835938 6.046875 -6.484375 L 6.046875 -7.5625 L 8.359375 -7.5625 L 8.359375 0 L 6.046875 0 L 6.046875 -1.0625 C 5.816406 -0.71875 5.5 -0.4375 5.09375 -0.21875 C 4.695312 0 4.234375 0.109375 3.703125 0.109375 C 3.085938 0.109375 2.523438 -0.0507812 2.015625 -0.375 C 1.515625 -0.695312 1.113281 -1.148438 0.8125 -1.734375 C 0.519531 -2.328125 0.375 -3.015625 0.375 -3.796875 Z M 6.046875 -3.78125 C 6.046875 -4.351562 5.882812 -4.804688 5.5625 -5.140625 C 5.238281 -5.484375 4.847656 -5.65625 4.390625 -5.65625 C 3.929688 -5.65625 3.539062 -5.488281 3.21875 -5.15625 C 2.894531 -4.820312 2.734375 -4.367188 2.734375 -3.796875 C 2.734375 -3.210938 2.894531 -2.75 3.21875 -2.40625 C 3.539062 -2.070312 3.929688 -1.90625 4.390625 -1.90625 C 4.847656 -1.90625 5.238281 -2.070312 5.5625 -2.40625 C 5.882812 -2.738281 6.046875 -3.195312 6.046875 -3.78125 Z M 6.046875 -3.78125 "/></g></g></g><g fill="#000000" fill-opacity="1"><g transform="translate(54.586981, 18.869595)"><g><path d="M 3.15625 -10.03125 L 3.15625 0 L 0.84375 0 L 0.84375 -10.03125 Z M 3.15625 -10.03125 "/></g></g></g><g fill="#000000" fill-opacity="1"><g transform="translate(58.58153, 18.869595)"><g><path d="M 4.28125 0.109375 C 3.539062 0.109375 2.875 -0.046875 2.28125 -0.359375 C 1.6875 -0.679688 1.21875 -1.132812 0.875 -1.71875 C 0.539062 -2.300781 0.375 -2.988281 0.375 -3.78125 C 0.375 -4.550781 0.546875 -5.234375 0.890625 -5.828125 C 1.234375 -6.421875 1.703125 -6.875 2.296875 -7.1875 C 2.898438 -7.507812 3.570312 -7.671875 4.3125 -7.671875 C 5.050781 -7.671875 5.71875 -7.507812 6.3125 -7.1875 C 6.90625 -6.875 7.375 -6.421875 7.71875 -5.828125 C 8.0625 -5.234375 8.234375 -4.550781 8.234375 -3.78125 C 8.234375 -3 8.054688 -2.3125 7.703125 -1.71875 C 7.359375 -1.132812 6.882812 -0.679688 6.28125 -0.359375 C 5.6875 -0.046875 5.019531 0.109375 4.28125 0.109375 Z M 4.28125 -1.890625 C 4.71875 -1.890625 5.09375 -2.050781 5.40625 -2.375 C 5.71875 -2.707031 5.875 -3.175781 5.875 -3.78125 C 5.875 -4.382812 5.722656 -4.847656 5.421875 -5.171875 C 5.117188 -5.492188 4.75 -5.65625 4.3125 -5.65625 C 3.851562 -5.65625 3.472656 -5.492188 3.171875 -5.171875 C 2.878906 -4.859375 2.734375 -4.394531 2.734375 -3.78125 C 2.734375 -3.175781 2.878906 -2.707031 3.171875 -2.375 C 3.460938 -2.050781 3.832031 -1.890625 4.28125 -1.890625 Z M 4.28125 -1.890625 "/></g></g></g><g fill="#000000" fill-opacity="1"><g transform="translate(67.207038, 18.869595)"><g><path d="M 3.71875 -7.671875 C 4.25 -7.671875 4.710938 -7.5625 5.109375 -7.34375 C 5.515625 -7.125 5.828125 -6.835938 6.046875 -6.484375 L 6.046875 -7.5625 L 8.359375 -7.5625 L 8.359375 -0.015625 C 8.359375 0.679688 8.21875 1.3125 7.9375 1.875 C 7.664062 2.4375 7.25 2.882812 6.6875 3.21875 C 6.125 3.550781 5.421875 3.71875 4.578125 3.71875 C 3.460938 3.71875 2.554688 3.453125 1.859375 2.921875 C 1.160156 2.398438 0.757812 1.6875 0.65625 0.78125 L 2.953125 0.78125 C 3.023438 1.070312 3.195312 1.300781 3.46875 1.46875 C 3.738281 1.632812 4.070312 1.71875 4.46875 1.71875 C 4.945312 1.71875 5.328125 1.578125 5.609375 1.296875 C 5.898438 1.023438 6.046875 0.585938 6.046875 -0.015625 L 6.046875 -1.078125 C 5.816406 -0.734375 5.503906 -0.445312 5.109375 -0.21875 C 4.710938 0 4.25 0.109375 3.71875 0.109375 C 3.09375 0.109375 2.523438 -0.0507812 2.015625 -0.375 C 1.515625 -0.695312 1.113281 -1.148438 0.8125 -1.734375 C 0.519531 -2.328125 0.375 -3.015625 0.375 -3.796875 C 0.375 -4.566406 0.519531 -5.242188 0.8125 -5.828125 C 1.113281 -6.421875 1.515625 -6.875 2.015625 -7.1875 C 2.523438 -7.507812 3.09375 -7.671875 3.71875 -7.671875 Z M 6.046875 -3.78125 C 6.046875 -4.351562 5.882812 -4.804688 5.5625 -5.140625 C 5.238281 -5.484375 4.847656 -5.65625 4.390625 -5.65625 C 3.929688 -5.65625 3.539062 -5.488281 3.21875 -5.15625 C 2.894531 -4.820312 2.734375 -4.367188 2.734375 -3.796875 C 2.734375 -3.210938 2.894531 -2.75 3.21875 -2.40625 C 3.539062 -2.070312 3.929688 -1.90625 4.390625 -1.90625 C 4.847656 -1.90625 5.238281 -2.070312 5.5625 -2.40625 C 5.882812 -2.738281 6.046875 -3.195312 6.046875 -3.78125 Z M 6.046875 -3.78125 "/></g></g></g><g fill="#000000" fill-opacity="1"><g transform="translate(76.401266, 18.869595)"><g><path d="M 2 -8.34375 C 1.59375 -8.34375 1.257812 -8.460938 1 -8.703125 C 0.75 -8.941406 0.625 -9.238281 0.625 -9.59375 C 0.625 -9.957031 0.75 -10.253906 1 -10.484375 C 1.257812 -10.722656 1.59375 -10.84375 2 -10.84375 C 2.394531 -10.84375 2.722656 -10.722656 2.984375 -10.484375 C 3.242188 -10.253906 3.375 -9.957031 3.375 -9.59375 C 3.375 -9.238281 3.242188 -8.941406 2.984375 -8.703125 C 2.722656 -8.460938 2.394531 -8.34375 2 -8.34375 Z M 3.15625 -7.5625 L 3.15625 0 L 0.84375 0 L 0.84375 -7.5625 Z M 3.15625 -7.5625 "/></g></g></g><g fill="#000000" fill-opacity="1"><g transform="translate(80.395815, 18.869595)"><g><path d="M 5.453125 0 L 3.15625 -3.171875 L 3.15625 0 L 0.84375 0 L 0.84375 -10.03125 L 3.15625 -10.03125 L 3.15625 -4.484375 L 5.453125 -7.5625 L 8.296875 -7.5625 L 5.15625 -3.765625 L 8.328125 0 Z M 5.453125 0 "/></g></g></g><g fill="#000000" fill-opacity="1"><g transform="translate(88.764052, 18.869595)"><g><path d="M 0.375 -3.796875 C 0.375 -4.566406 0.519531 -5.242188 0.8125 -5.828125 C 1.113281 -6.421875 1.515625 -6.875 2.015625 -7.1875 C 2.523438 -7.507812 3.09375 -7.671875 3.71875 -7.671875 C 4.25 -7.671875 4.710938 -7.5625 5.109375 -7.34375 C 5.515625 -7.125 5.828125 -6.835938 6.046875 -6.484375 L 6.046875 -7.5625 L 8.359375 -7.5625 L 8.359375 0 L 6.046875 0 L 6.046875 -1.0625 C 5.816406 -0.71875 5.5 -0.4375 5.09375 -0.21875 C 4.695312 0 4.234375 0.109375 3.703125 0.109375 C 3.085938 0.109375 2.523438 -0.0507812 2.015625 -0.375 C 1.515625 -0.695312 1.113281 -1.148438 0.8125 -1.734375 C 0.519531 -2.328125 0.375 -3.015625 0.375 -3.796875 Z M 6.046875 -3.78125 C 6.046875 -4.351562 5.882812 -4.804688 5.5625 -5.140625 C 5.238281 -5.484375 4.847656 -5.65625 4.390625 -5.65625 C 3.929688 -5.65625 3.539062 -5.488281 3.21875 -5.15625 C 2.894531 -4.820312 2.734375 -4.367188 2.734375 -3.796875 C 2.734375 -3.210938 2.894531 -2.75 3.21875 -2.40625 C 3.539062 -2.070312 3.929688 -1.90625 4.390625 -1.90625 C 4.847656 -1.90625 5.238281 -2.070312 5.5625 -2.40625 C 5.882812 -2.738281 6.046875 -3.195312 6.046875 -3.78125 Z M 6.046875 -3.78125 "/></g></g></g></svg>